<?xml version="1.0" encoding="UTF-8"?>
<svg width="512px" height="512px" viewBox="0 0 512 512" version="1.1" xmlns="http://www.w3.org/2000/svg" xmlns:xlink="http://www.w3.org/1999/xlink">
    <title>Icon</title>
    <defs>
        <linearGradient x1="50%" y1="0%" x2="50%" y2="100%" id="linearGradient-1">
            <stop stop-color="#1E88E5" offset="0%"></stop>
            <stop stop-color="#1B69D0" offset="100%"></stop>
        </linearGradient>
    </defs>
    <g id="Icon" stroke="none" stroke-width="1" fill="none" fill-rule="evenodd">
        <rect id="Background" fill-opacity="0" fill="#000000" x="0" y="0" width="512" height="512"></rect>
        <path d="M336.084328,200.030303 L402.111111,134.00352 L377.99648,109.888889 L311.969697,175.915672 L336.084328,200.030303 Z M436.494949,134.106434 C436.494949,138.14923 435.148947,141.51663 432.456943,144.208634 L143.703584,432.961994 C141.01158,435.653998 137.64418,437 133.601384,437 C129.558587,437 126.191187,435.653998 123.499183,432.961994 L79.0380061,388.500817 C76.346002,385.808813 75,382.441413 75,378.398616 C75,374.35582 76.346002,370.98842 79.0380061,368.296416 L367.791366,79.5430566 C370.48337,76.8510525 373.85077,75.5050505 377.893566,75.5050505 C381.936362,75.5050505 385.303762,76.8510525 387.995766,79.5430566 L432.456943,124.004234 C435.148947,126.696238 436.494949,130.063638 436.494949,134.106434 L436.494949,134.106434 Z M132.866606,91.0525859 L154.919192,97.8080808 L132.866606,104.563576 L126.111111,126.616162 L119.355616,104.563576 L97.3030303,97.8080808 L119.355616,91.0525859 L126.111111,69 L132.866606,91.0525859 Z M212.103573,127.047943 L256.212121,140.555556 L212.103573,154.063169 L198.59596,198.171717 L185.088347,154.063169 L140.979798,140.555556 L185.088347,127.047943 L198.59596,82.9393939 L212.103573,127.047943 Z M420.947414,235.09299 L443,241.848485 L420.947414,248.60398 L414.191919,270.656566 L407.436424,248.60398 L385.383838,241.848485 L407.436424,235.09299 L414.191919,213.040404 L420.947414,235.09299 Z M276.90701,91.0525859 L298.959596,97.8080808 L276.90701,104.563576 L270.151515,126.616162 L263.39602,104.563576 L241.343434,97.8080808 L263.39602,91.0525859 L270.151515,69 L276.90701,91.0525859 Z" id="Shape" fill="url(#linearGradient-1)"></path>
    </g>
</svg>