<?xml version="1.0" encoding="UTF-8"?>
<svg width="512px" height="512px" viewBox="0 0 512 512" version="1.1" xmlns="http://www.w3.org/2000/svg" xmlns:xlink="http://www.w3.org/1999/xlink">
    <title>Icon</title>
    <g id="Icon" stroke="none" stroke-width="1" fill="none" fill-rule="evenodd">
        <rect id="Background" fill="#000000" x="0" y="0" width="512" height="512"></rect>
        <path d="M336.34432,200 L403,133.34432 L378.65568,109 L312,175.65568 L336.34432,200 Z M436,134.521148 C436,138.558409 434.655841,141.921198 431.967523,144.609517 L143.609517,432.967523 C140.921198,435.655841 137.558409,437 133.521148,437 C129.483887,437 126.121098,435.655841 123.432779,432.967523 L79.0324773,388.567221 C76.3441591,385.878902 75,382.516113 75,378.478852 C75,374.441591 76.3441591,371.078802 79.0324773,368.390483 L367.390483,80.0324773 C370.078802,77.3441591 373.441591,76 377.478852,76 C381.516113,76 384.878902,77.3441591 387.567221,80.0324773 L431.967523,124.432779 C434.655841,127.121098 436,130.483887 436,134.521148 L436,134.521148 Z M132.8005,91.1995 L155,98 L132.8005,104.8005 L126,127 L119.1995,104.8005 L97,98 L119.1995,91.1995 L126,69 L132.8005,91.1995 Z M211.98038,127.01962 L256,140.5 L211.98038,153.98038 L198.5,198 L185.01962,153.98038 L141,140.5 L185.01962,127.01962 L198.5,83 L211.98038,127.01962 Z M420.8005,235.1995 L443,242 L420.8005,248.8005 L414,271 L407.1995,248.8005 L385,242 L407.1995,235.1995 L414,213 L420.8005,235.1995 Z M276.8005,91.1995 L299,98 L276.8005,104.8005 L270,127 L263.1995,104.8005 L241,98 L263.1995,91.1995 L270,69 L276.8005,91.1995 Z" id="Shape" fill="#FFFFFF"></path>
    </g>
</svg>